<?xml version="1.0" encoding="iso-8859-1"?>
<!-- Generator: Adobe Illustrator 19.0.0, SVG Export Plug-In . SVG Version: 6.00 Build 0)  -->
<svg version="1.1" id="Capa_1" xmlns="http://www.w3.org/2000/svg" xmlns:xlink="http://www.w3.org/1999/xlink" x="0px" y="0px"
	 viewBox="0 0 512 512" style="enable-background:new 0 0 512 512;" xml:space="preserve">
<g>
	<g>
		<path d="M486.456,310.509l-149.163-135.96l24.089-24.089c1.697,1.164,3.669,1.753,5.646,1.753c2.56,0,5.118-0.977,7.071-2.929
			l27.134-27.134c3.905-3.905,3.905-10.237,0-14.143L296.154,2.928c-3.906-3.904-10.236-3.904-14.143,0l-27.134,27.134
			c-3.46,3.46-3.848,8.823-1.176,12.717L150.146,146.335c-3.895-2.671-9.256-2.284-12.717,1.176l-27.134,27.134
			c-3.905,3.905-3.905,10.237,0,14.143l105.079,105.08c1.876,1.875,4.419,2.929,7.071,2.929s5.196-1.054,7.071-2.929l27.134-27.135
			c3.46-3.46,3.848-8.823,1.176-12.717l24.089-24.088L417.877,379.09c1.841,2.019,4.428,3.198,7.159,3.261
			c0.077,0.002,0.154,0.003,0.231,0.003c2.649,0,5.193-1.052,7.071-2.929l54.452-54.452c1.932-1.933,2.989-4.571,2.926-7.303
			C489.654,314.937,488.475,312.35,486.456,310.509z M289.083,24.142l90.937,90.937l-12.991,12.991l-90.936-90.937L289.083,24.142z
			 M222.445,272.653l-90.937-90.938l12.991-12.991l90.937,90.937L222.445,272.653z M243.808,239.748l-79.396-79.396L267.72,57.046
			l79.396,79.396L243.808,239.748z M425.602,357.875L296.072,215.77l27.064-27.063l142.106,129.529L425.602,357.875z"/>
	</g>
</g>
<g>
	<g>
		<path d="M385.847,432.769v-13.124c0-21.856-17.781-39.638-39.638-39.638H99.638C77.782,380.007,60,397.788,60,419.645v13.124
			c-20.968,1.006-37.718,18.38-37.718,39.592c0,21.856,17.782,39.639,39.639,39.639h322.005c21.857,0,39.639-17.782,39.639-39.639
			C423.564,451.149,406.814,433.775,385.847,432.769z M383.926,492H61.921c-10.829,0-19.639-8.81-19.639-19.639
			c0-10.828,8.809-19.638,19.639-19.638H70c0.033,0,0.065-0.005,0.098-0.005c0.013,0,0.026,0.002,0.04,0.002h215.43
			c5.523,0,10-4.477,10-10c0-5.522-4.477-10-10-10H80v-13.075c0-10.828,8.81-19.638,19.638-19.638h246.571
			c10.828,0,19.638,8.81,19.638,19.638v23.078c0,5.523,4.478,10,10,10h8.079c10.829,0,19.639,8.81,19.639,19.638
			C403.564,483.19,394.755,492,383.926,492z"/>
	</g>
</g>
<g>
	<g>
		<path d="M334.469,445.999c-0.128-0.64-0.319-1.27-0.569-1.87c-0.25-0.61-0.56-1.19-0.92-1.73c-0.359-0.55-0.779-1.06-1.239-1.52
			c-0.46-0.46-0.971-0.88-1.52-1.24c-0.54-0.36-1.12-0.67-1.73-0.92c-0.601-0.25-1.23-0.44-1.87-0.57c-1.29-0.26-2.62-0.26-3.91,0
			c-0.63,0.13-1.26,0.32-1.87,0.57c-0.6,0.25-1.18,0.56-1.72,0.92c-0.551,0.36-1.061,0.78-1.521,1.24
			c-1.87,1.86-2.93,4.439-2.93,7.07c0,0.659,0.06,1.31,0.189,1.96c0.131,0.63,0.32,1.26,0.57,1.869
			c0.25,0.601,0.56,1.181,0.92,1.721c0.37,0.55,0.79,1.06,1.25,1.52c0.46,0.46,0.97,0.88,1.521,1.25c0.54,0.36,1.12,0.67,1.72,0.92
			c0.61,0.25,1.24,0.44,1.87,0.57c0.649,0.13,1.309,0.19,1.96,0.19c0.649,0,1.31-0.061,1.95-0.19c0.64-0.13,1.27-0.32,1.87-0.57
			c0.609-0.25,1.19-0.56,1.73-0.92c0.55-0.37,1.061-0.79,1.52-1.25c0.46-0.46,0.88-0.97,1.239-1.52c0.36-0.54,0.67-1.12,0.92-1.721
			c0.25-0.609,0.44-1.239,0.57-1.869c0.13-0.65,0.2-1.301,0.2-1.96C334.669,447.299,334.599,446.648,334.469,445.999z"/>
	</g>
</g>
<g>
	<g>
		<path d="M222.923,307.772c-5.523,0-10,4.477-10,10v19.416c0,5.522,4.477,10,10,10c5.522,0,10-4.478,10-10v-19.416
			C232.923,312.249,228.445,307.772,222.923,307.772z"/>
	</g>
</g>
<g>
	<g>
		<path d="M166.405,344.344l-17.872-17.871c-3.906-3.904-10.238-3.904-14.143,0c-3.905,3.905-3.905,10.237,0,14.143l17.872,17.871
			c1.954,1.952,4.512,2.929,7.072,2.929s5.119-0.977,7.071-2.929C170.31,354.582,170.31,348.25,166.405,344.344z"/>
	</g>
</g>
<g>
	<g>
		<path d="M311.455,326.473c-3.906-3.904-10.236-3.904-14.143,0l-17.871,17.871c-3.905,3.905-3.905,10.237,0,14.143
			c1.953,1.952,4.512,2.929,7.071,2.929s5.119-0.977,7.072-2.929l17.871-17.871C315.36,336.711,315.36,330.379,311.455,326.473z"/>
	</g>
</g>
<g>
</g>
<g>
</g>
<g>
</g>
<g>
</g>
<g>
</g>
<g>
</g>
<g>
</g>
<g>
</g>
<g>
</g>
<g>
</g>
<g>
</g>
<g>
</g>
<g>
</g>
<g>
</g>
<g>
</g>
</svg>
